<?xml version="1.0" encoding="UTF-8" standalone="no"?>
<!-- Generator: Adobe Illustrator 18.0.0, SVG Export Plug-In . SVG Version: 6.00 Build 0)  -->

<svg
   xmlns:dc="http://purl.org/dc/elements/1.1/"
   xmlns:cc="http://creativecommons.org/ns#"
   xmlns:rdf="http://www.w3.org/1999/02/22-rdf-syntax-ns#"
   xmlns:svg="http://www.w3.org/2000/svg"
   xmlns="http://www.w3.org/2000/svg"
   xmlns:sodipodi="http://sodipodi.sourceforge.net/DTD/sodipodi-0.dtd"
   xmlns:inkscape="http://www.inkscape.org/namespaces/inkscape"
   version="1.1"
   id="Layer_1"
   x="0px"
   y="0px"
   viewBox="0 0 42 42"
   enable-background="new 0 0 42 42"
   xml:space="preserve"
   inkscape:version="0.91 r13725"
   sodipodi:docname="avo.svg"><metadata
     id="metadata31"><rdf:RDF><cc:Work
         rdf:about=""><dc:format>image/svg+xml</dc:format><dc:type
           rdf:resource="http://purl.org/dc/dcmitype/StillImage" /><dc:title></dc:title></cc:Work></rdf:RDF></metadata><defs
     id="defs29" /><sodipodi:namedview
     pagecolor="#ffffff"
     bordercolor="#666666"
     borderopacity="1"
     objecttolerance="10"
     gridtolerance="10"
     guidetolerance="10"
     inkscape:pageopacity="0"
     inkscape:pageshadow="2"
     inkscape:window-width="1600"
     inkscape:window-height="837"
     id="namedview27"
     showgrid="false"
     inkscape:zoom="11.238095"
     inkscape:cx="21"
     inkscape:cy="15.499677"
     inkscape:window-x="-8"
     inkscape:window-y="-8"
     inkscape:window-maximized="1"
     inkscape:current-layer="g3" /><g
     id="g3"><path
       d="m 28.988761,30.321183 c -0.1,0.5 -2.9,1.5 -7.9,1.5 -5,0 -7.9,-1 -8,-1.5 l 0,-0.8 c 1,-0.7 3.9,-1.3 7.9,-1.3 4.1,0 7,0.6 8.1,1.3 l 0,0.8 z"
       id="path5"
       inkscape:connector-curvature="0"
       style="fill:#ffecce" /><path
       d="m 15.122246,22.645658 c -0.9,0.2 -1.6,0.5 -2,0.8 l 0,5.2 c 2.2,-1.1 6.7,-1.2 7.9,-1.2 2.3,0 4.6,0.2 6.2,0.6 0.8,0.2 1.4,0.4 1.8,0.6 l 0,-5.2 c -1.1,-0.7 -3.9,-1.3 -8,-1.3 -2.3,-0.1 -4.4,0.1 -5.9,0.5 z"
       id="path7"
       inkscape:connector-curvature="0"
       style="fill:#ffecce" /><path
       d="m 20.881571,21.250684 c 2.3,0 4.6,0.2 6.2,0.6 0.8,0.2 1.4,0.4 1.8,0.6 l 0,-5 c 0,-0.6 -2.8,-1.7 -8,-1.7 l 0,0 c -1.5,0 -2.9,0.1 -4.1,0.3 l -3.7,3.7 0,2.7 c 2.2,-1.1 6.7,-1.2 7.8,-1.2 z"
       id="path9"
       inkscape:connector-curvature="0"
       style="fill:#ffecce" /><path
       d="m 20.9,15.8 0,0 c 5.2,0 8,1.1 8,1.7 l 0,5 c -0.5,-0.2 -1.1,-0.4 -1.8,-0.6 -1.7,-0.4 -3.9,-0.6 -6.2,-0.6 -1.1,0 -5.6,0.1 -7.9,1.2 l 0,-2.6 -1.7,1.7 0,8.5 c 0,3 7.5,3.2 9.8,3.2 2.9,0 9.6,-0.3 9.6,-3.2 l 0,-12.5 c 0,-3.3 -8.1,-3.4 -9.7,-3.4 l 0,0 c -0.8,0 -1.5,0 -2.2,0.1 l -1.9,1.9 c 1.1,-0.3 2.5,-0.4 4,-0.4 z M 29,30.3 c -0.1,0.5 -2.9,1.5 -7.9,1.5 -5,0 -7.9,-1 -8,-1.5 l 0,-0.8 c 1,-0.7 3.9,-1.3 7.9,-1.3 4.1,0 7,0.6 8.1,1.3 l 0,0.8 z m 0,-1.6 c -0.5,-0.2 -1.1,-0.4 -1.8,-0.6 -1.7,-0.4 -3.9,-0.6 -6.2,-0.6 -1.1,0 -5.6,0.1 -7.9,1.2 l 0,-5.2 c 0.4,-0.3 1.1,-0.5 2,-0.8 1.5,-0.4 3.6,-0.6 5.9,-0.6 4.1,0 7,0.6 8,1.3 l 0,5.3 z"
       id="path11"
       inkscape:connector-curvature="0"
       style="fill:#3d6480" /><g
       id="g13"
       transform="translate(-28.385593,-27.940678)"><polygon
         points="37.2,35.8 32,30.6 30.7,31.9 35.9,37.2 32.7,37.2 32.7,39.1 39.1,39.1 39.1,32.7 37.2,32.7 "
         id="polygon15"
         style="fill:#3d6480" /></g><g
       id="g17"
       transform="translate(2,0)"><path
         d="m 18.1,12.4 -0.9,0 -0.5,-1.6 -2.8,0 -0.5,1.6 -0.9,0 2.2,-6.7 1.2,0 2.2,6.7 z m -2.8,-6 -1.2,3.7 2.4,0 -1.2,-3.7 z"
         id="path19"
         inkscape:connector-curvature="0"
         style="fill:#3d6480" /><path
         d="m 21.5,7.6 0.8,0 -1.6,4.9 -1.1,0 -1.6,-4.9 0.8,0 1.3,4.2 1.4,-4.2 z"
         id="path21"
         inkscape:connector-curvature="0"
         style="fill:#3d6480" /><path
         d="m 25.2,8.2 c -0.5,0.2 -1,0.6 -1.4,0.8 l 0,3.4 -0.8,0 0,-4.8 0.7,0 0,0.7 C 24.1,8 24.6,7.7 25,7.5 l 0.2,0.7 z"
         id="path23"
         inkscape:connector-curvature="0"
         style="fill:#3d6480" /><path
         d="m 27.6,12.5 c -1.4,0 -2,-0.8 -2,-1.8 l 0,-1.4 c 0,-1 0.6,-1.8 2,-1.8 1.4,0 2,0.8 2,1.8 l 0,1.4 c -0.1,1 -0.6,1.8 -2,1.8 z m 0,-4.3 c -0.8,0 -1.1,0.4 -1.1,1.1 l 0,1.5 c 0,0.7 0.4,1.1 1.1,1.1 0.8,0 1.1,-0.4 1.1,-1.1 l 0,-1.5 c 0,-0.7 -0.4,-1.1 -1.1,-1.1 z"
         id="path25"
         inkscape:connector-curvature="0"
         style="fill:#3d6480" /></g></g></svg>